<?xml version="1.0" encoding="iso-8859-1"?>
<!-- Generator: Adobe Illustrator 19.0.0, SVG Export Plug-In . SVG Version: 6.00 Build 0)  -->
<svg version="1.1" id="Layer_1" xmlns="http://www.w3.org/2000/svg" xmlns:xlink="http://www.w3.org/1999/xlink" x="0px" y="0px"
	 viewBox="0 0 460 460" style="enable-background:new 0 0 460 460;" xml:space="preserve">
<g id="XMLID_1034_">
	<polygon id="XMLID_1035_" style="fill:#8799B3;" points="210,149.998 230,299.992 440,299.992 440,169.998 	"/>
	<polygon id="XMLID_1036_" style="fill:#A3B1C4;" points="230,39.999 210,169.998 440,169.998 440,40.006 	"/>
	<polygon id="XMLID_1037_" style="fill:#A3B1C4;" points="20,169.998 20,299.992 230,299.992 230,169.998 130,139.998 	"/>
	<polygon id="XMLID_1038_" style="fill:#BEC8D6;" points="20,40.006 20,169.998 230,169.998 230,39.999 	"/>
	<path id="XMLID_1039_" style="fill:#354A67;" d="M230,80.002c49.71,0,90,40.29,90,90c0,49.7-40.29,90-90,90l-20-90L230,80.002z"/>
	<path id="XMLID_1040_" style="fill:#466289;" d="M230,80.002v180c-49.71,0-90-40.3-90-90C140,120.292,180.29,80.002,230,80.002z"/>
	<polygon id="XMLID_1041_" style="fill:#354A67;" points="460,440.002 230,440.002 220,400.002 460,410.002 	"/>
	<polygon id="XMLID_1042_" style="fill:#466289;" points="460,410.002 230,410.002 220,370.002 460,380.002 	"/>
	<polygon id="XMLID_1043_" style="fill:#354A67;" points="460,379.998 230,379.998 220,339.998 460,349.998 	"/>
	<polygon id="XMLID_1044_" style="fill:#466289;" points="460,349.998 230,349.998 220,309.998 460,319.998 	"/>
	<polygon id="XMLID_1045_" style="fill:#466289;" points="230,440.002 0,440.002 0,410.002 115,400.002 230,410.002 	"/>
	<polygon id="XMLID_1046_" style="fill:#6B81A1;" points="230,410.002 0,410.002 0,380.002 115,370.002 230,380.002 	"/>
	<polygon id="XMLID_1047_" style="fill:#466289;" points="230,379.998 0,379.998 0,349.998 115,339.998 230,349.998 	"/>
	<polygon id="XMLID_1048_" style="fill:#6B81A1;" points="230,349.998 0,349.998 0,319.998 230,309.998 	"/>
	<path id="XMLID_1049_" style="fill:#233145;" d="M230,19.998l-20,15l20,15h145.128c9.039,25.57,29.302,45.833,54.872,54.872
		v130.256c-25.57,9.039-45.833,29.302-54.872,54.872H230l-20,15l20,15h230v-300L230,19.998L230,19.998z"/>
	<path id="XMLID_1050_" style="fill:#354A67;" d="M84.872,49.998H230v-30H0v300h230v-30H84.872
		C75.833,264.428,55.57,244.165,30,235.127V104.87C55.57,95.831,75.833,75.568,84.872,49.998z"/>
</g>
<g>
</g>
<g>
</g>
<g>
</g>
<g>
</g>
<g>
</g>
<g>
</g>
<g>
</g>
<g>
</g>
<g>
</g>
<g>
</g>
<g>
</g>
<g>
</g>
<g>
</g>
<g>
</g>
<g>
</g>
</svg>
