<?xml version="1.0" encoding="UTF-8"?>
<svg xmlns="http://www.w3.org/2000/svg" xmlns:xlink="http://www.w3.org/1999/xlink" width="119pt" height="119pt" viewBox="0 0 119 119" version="1.1">
<g id="surface1">
<path style=" stroke:none;fill-rule:nonzero;fill:rgb(92.941176%,78.823529%,17.254902%);fill-opacity:1;" d="M 119 59.5 C 119 92.359375 92.359375 119 59.5 119 C 26.640625 119 0 92.359375 0 59.5 C 0 26.640625 26.640625 0 59.5 0 C 92.359375 0 119 26.640625 119 59.5 Z M 119 59.5 "/>
<path style=" stroke:none;fill-rule:nonzero;fill:rgb(73.333333%,50.588235%,23.529412%);fill-opacity:1;" d="M 90.25 77.171875 C 90.25 93.851562 76.726562 98.554688 60.042969 98.554688 C 43.359375 98.554688 29.835938 93.851562 29.835938 77.171875 C 29.835938 60.488281 43.359375 38.136719 60.042969 38.136719 C 76.726562 38.136719 90.25 60.488281 90.25 77.171875 Z M 90.25 77.171875 "/>
<path style=" stroke:none;fill-rule:nonzero;fill:rgb(73.333333%,50.588235%,23.529412%);fill-opacity:1;" d="M 59.367188 37.070312 L 64.296875 37.070312 L 74.023438 24.90625 L 74.023438 20.25 L 67.296875 20.25 L 67.296875 17.605469 L 52.28125 17.605469 L 52.28125 20.25 L 45.554688 20.25 L 45.554688 24.90625 L 55.285156 37.070312 Z M 59.367188 37.070312 "/>
<path style=" stroke:none;fill-rule:nonzero;fill:rgb(62.745098%,42.745098%,20.784314%);fill-opacity:1;" d="M 67.296875 20.25 L 60.964844 35.855469 L 71.199219 20.273438 Z M 67.296875 20.25 "/>
<path style=" stroke:none;fill-rule:nonzero;fill:rgb(62.745098%,42.745098%,20.784314%);fill-opacity:1;" d="M 52.332031 20.25 L 58.664062 35.855469 L 48.429688 20.273438 Z M 52.332031 20.25 "/>
<path style=" stroke:none;fill-rule:nonzero;fill:rgb(62.745098%,42.745098%,20.784314%);fill-opacity:1;" d="M 55.359375 44.902344 L 59.453125 40.644531 L 52.835938 44.894531 Z M 55.359375 44.902344 "/>
<path style=" stroke:none;fill-rule:nonzero;fill:rgb(62.745098%,42.745098%,20.784314%);fill-opacity:1;" d="M 65.035156 44.902344 L 60.941406 40.644531 L 67.558594 44.894531 Z M 65.035156 44.902344 "/>
<path style=" stroke:none;fill-rule:nonzero;fill:rgb(55.294118%,37.647059%,18.431373%);fill-opacity:1;" d="M 65.792969 38.285156 C 65.792969 39.007812 65.210938 39.59375 64.484375 39.59375 L 55.429688 39.59375 C 54.703125 39.59375 54.121094 39.007812 54.121094 38.285156 C 54.121094 37.566406 54.703125 36.976562 55.429688 36.976562 L 64.484375 36.976562 C 65.210938 36.976562 65.792969 37.566406 65.792969 38.285156 Z M 65.792969 38.285156 "/>
<path style=" stroke:none;fill-rule:nonzero;fill:rgb(62.745098%,42.745098%,20.784314%);fill-opacity:1;" d="M 58.816406 17.742188 L 60.964844 17.742188 L 59.75 35.222656 Z M 58.816406 17.742188 "/>
<path style=" stroke:none;fill-rule:nonzero;fill:rgb(55.294118%,37.647059%,18.431373%);fill-opacity:1;" d="M 51.222656 75.511719 C 49.488281 75.511719 48.738281 74.667969 48.738281 73.546875 L 48.738281 73.03125 C 48.738281 71.953125 49.488281 71.0625 51.222656 71.0625 L 55.765625 71.0625 C 55.8125 71.0625 48.457031 59.769531 48.457031 59.769531 C 48.226562 59.398438 49.160156 56.914062 52.441406 56.914062 C 53.84375 56.914062 54.925781 57.617188 55.71875 59.304688 L 60.917969 69.09375 L 66.261719 59.304688 C 67.195312 57.523438 68.273438 56.867188 69.632812 56.867188 C 72.441406 56.867188 73.472656 59.441406 73.289062 59.769531 L 65.980469 71.0625 L 70.476562 71.0625 C 72.257812 71.0625 73.007812 71.953125 73.007812 73.03125 L 73.007812 73.546875 C 73.007812 74.667969 72.257812 75.511719 70.476562 75.511719 L 63.964844 75.511719 L 63.964844 77.996094 L 70.476562 77.996094 C 72.257812 77.996094 73.007812 78.839844 73.007812 79.964844 L 73.007812 80.480469 C 73.007812 81.554688 72.257812 82.445312 70.476562 82.445312 L 63.964844 82.445312 L 63.964844 84.601562 C 63.964844 86.710938 63.167969 87.789062 61.203125 87.789062 L 60.496094 87.789062 C 58.578125 87.789062 57.828125 86.710938 57.828125 84.601562 L 57.828125 82.445312 L 51.222656 82.445312 C 49.488281 82.445312 48.738281 81.558594 48.738281 80.480469 L 48.738281 79.964844 C 48.738281 78.839844 49.488281 77.996094 51.222656 77.996094 L 57.828125 77.996094 L 57.828125 75.511719 Z M 51.222656 75.511719 "/>
</g>
</svg>
