<?xml version="1.0" encoding="iso-8859-1"?>
<!-- Generator: Adobe Illustrator 19.0.0, SVG Export Plug-In . SVG Version: 6.00 Build 0)  -->
<svg version="1.1" id="Layer_1" xmlns="http://www.w3.org/2000/svg" xmlns:xlink="http://www.w3.org/1999/xlink" x="0px" y="0px"
	 viewBox="0 0 511.672 511.672" style="enable-background:new 0 0 511.672 511.672;" xml:space="preserve">
<path style="fill:#F6BB42;" d="M511.672,391.952c0,0-97.531-128.574-180.463-211.49C248.278,97.531,119.705,0,119.705,0
	s136.006,0.328,263.83,128.136C511.344,255.945,511.672,391.952,511.672,391.952z"/>
<path style="fill:#8C4C4C;" d="M380.943,85.507L9.369,457.082c-12.492,12.492-12.492,32.729,0,45.221
	c12.492,12.492,32.729,12.492,45.221,0l371.574-371.574L380.943,85.507z"/>
<rect x="322.589" y="87.817" transform="matrix(-0.7071 -0.7071 0.7071 -0.7071 494.1918 518.9033)" style="fill:#FFCE54;" width="63.951" height="138.569"/>
<path style="fill:#434A54;" d="M365.859,160.881c-4.154,4.169-10.915,4.154-15.068,0c-4.17-4.169-4.17-10.915,0-15.084
	c4.153-4.153,10.914-4.153,15.068,0C370.029,149.966,370.029,156.712,365.859,160.881z"/>
<polygon style="fill:#CCD1D9;" points="465.982,414.203 350.713,341.109 237.566,414.203 191.877,511.672 511.672,511.672 "/>
<polygon style="fill:#AAB2BC;" points="511.672,511.672 465.982,414.203 350.713,341.109 408.129,453.038 397.184,511.672 "/>
<g>
</g>
<g>
</g>
<g>
</g>
<g>
</g>
<g>
</g>
<g>
</g>
<g>
</g>
<g>
</g>
<g>
</g>
<g>
</g>
<g>
</g>
<g>
</g>
<g>
</g>
<g>
</g>
<g>
</g>
</svg>
